<?xml version="1.0" encoding="UTF-8"?>
<svg width="188px" height="32px" viewBox="0 0 188 32" version="1.1" xmlns="http://www.w3.org/2000/svg" xmlns:xlink="http://www.w3.org/1999/xlink">
    <!-- Generator: sketchtool 55.2 (78181) - https://sketchapp.com -->
    <title>1B8C1F4E-A792-47F3-8304-B63584BFB6FC</title>
    <desc>Created with sketchtool.</desc>
    <defs>
        <polygon id="path-1" points="0.000159863936 0.0711111111 49.6372755 0.0711111111 49.6372755 29.6958061 0.000159863936 29.6958061"></polygon>
        <polygon id="path-3" points="0.237973469 0.114650505 6.68400748 0.114650505 6.68400748 13.8989899 0.237973469 13.8989899"></polygon>
    </defs>
    <g id="Page-1" stroke="none" stroke-width="1" fill="none" fill-rule="evenodd">
        <g id="-kontakt_mobil_cervena" transform="translate(-76.000000, -47.000000)">
            <g id="top-navigation">
                <g id="Group-63" transform="translate(76.000000, 47.000000)">
                    <g id="Group-3" transform="translate(0.000000, 0.252154)">
                        <mask id="mask-2" fill="white">
                            <use href="#path-1"></use>
                        </mask>
                        <g id="Clip-2"></g>
                        <path d="M37.4687517,25.2904727 C37.5701054,25.0280081 37.7664184,24.8625131 38.0362687,24.8098263 L40.7808129,24.1908364 L40.5336633,21.7161697 L40.5247109,21.6628364 C40.457568,21.3383111 40.2532619,20.3511596 38.9785068,20.2457859 C34.0732415,19.8449778 32.9350102,19.1099475 31.7424252,18.331604 C31.741466,18.3280485 31.7392279,18.3232 31.7392279,18.3202909 L31.7312347,18.3232 L31.6538605,18.2727758 C30.3810238,17.4401293 29.1155408,17.4330182 28.9911667,17.4365737 C27.6013095,17.4375434 25.8431259,17.9931798 25.7002075,18.039402 C25.2762483,18.1657859 24.879466,18.2937859 24.4954728,18.4185535 C22.9591803,18.9176242 21.6323095,19.3507556 19.4028469,19.2832 L18.9961531,19.2712404 L18.8912823,19.6684929 C18.8113503,19.9749172 18.1875612,22.4657455 18.7896088,24.0663919 C18.2502279,24.4956444 18.2502279,24.993099 18.2534252,25.0593616 C18.2754864,25.6069172 18.147915,25.7417051 18.1053912,25.7856646 C17.8480102,26.0552404 16.9936973,26.0914424 16.2733503,26.0914424 L16.2653571,26.0914424 L16.0028605,26.0914424 L15.8490714,26.3054222 C15.4043299,26.922796 14.4464252,27.0666343 13.8331871,26.9095434 C13.563017,26.0794828 13.555983,25.4449778 13.8159218,25.0664727 C14.1228605,24.6197657 14.7751054,24.5712808 15.0395204,24.5712808 L15.1945884,24.5712808 C15.8455544,24.5712808 16.3756633,24.0321293 16.3756633,23.3701495 L16.3756633,18.9108364 C16.5742143,18.601503 16.7337585,18.2436848 16.8731599,17.8422303 C17.9490442,17.6680081 18.7736224,16.7451798 18.7736224,15.6348768 C18.7736224,15.2088566 18.649568,14.7973818 18.4247993,14.4450586 C19.420432,13.9608566 20.2709082,12.9714424 20.2709082,11.6752808 C20.2709082,10.3784727 19.6253776,9.78340202 19.0130986,9.39390707 C19.1851122,8.89612929 19.4703095,8.02113939 19.6640646,7.13936162 L20.5250918,4.02113939 C20.9106837,2.79835152 21.9171871,2.00869495 23.0905884,2.00869495 L38.2613571,2.00869495 C37.6193435,2.92214949 36.7071599,3.35431111 35.4435952,3.35431111 L26.2638878,3.35431111 L25.7836565,4.39253333 L34.0105748,4.39253333 C33.364085,5.43172525 32.4186497,5.92142222 31.0745136,5.92142222 L25.1099898,5.92142222 L24.6300782,6.95964444 L29.9522687,6.95964444 C29.3070578,7.96004848 28.3721735,8.43261414 27.0526565,8.43261414 L23.8010238,8.43261414 L23.3207925,9.47083636 L26.730051,9.47083636 C26.7610646,9.5131798 26.8461122,9.67059394 26.8461122,10.0914424 C26.8461122,10.7582707 26.2923435,11.301301 25.6094048,11.301301 C25.3756837,11.301301 25.1758537,11.2466747 24.8247925,11.1021899 C24.6742007,11.0378667 24.5242483,10.9732202 24.3733367,10.908897 L23.5816905,11.6264727 C23.7300442,11.6901495 23.877119,11.7538263 24.0254728,11.8168566 C24.7106497,12.1174626 25.0930442,12.2735838 25.6094048,12.2735838 C26.2373503,12.2735838 26.802949,12.010796 27.2042075,11.5918869 C27.7883503,11.6297051 28.7312279,11.7085737 29.6434116,11.7835636 C30.7333639,11.8747152 31.7628878,11.9600485 32.2965136,11.9888162 C32.5625272,12.0033616 32.8122347,12.0159677 33.0517109,12.027604 C33.5041259,12.0499071 33.9181735,12.0709172 34.3319014,12.1003313 C36.4015,15.4994424 37.4626769,15.9461495 41.4730238,16.4319677 C41.7617381,16.9552808 42.0213571,17.5086545 42.2701054,18.0652606 L42.2701054,24.6837657 L42.2713844,24.7215838 C42.294085,25.0260687 42.294085,25.1285333 42.2531599,25.1838061 C42.1137585,25.3683717 41.4947653,25.6295434 41.2792687,25.7190788 L37.8997449,27.0074828 C37.4514864,26.3933414 37.2906633,25.7530182 37.4687517,25.2904727 L37.4687517,25.2904727 Z M36.7378537,27.0876444 L30.0561803,27.0876444 L32.9193435,24.0321293 C33.4970918,23.4283313 33.6818946,22.7020283 33.4392211,21.9886545 C33.2988605,21.5771798 32.9212619,20.7884929 32.5283163,19.9797657 C33.664949,20.5140687 35.3876429,20.9943919 38.8950578,21.2794828 C39.3167789,21.3153616 39.4286837,21.4604929 39.5121327,21.8486949 L39.6659218,23.3788768 L37.8335612,23.7919677 C37.2190442,23.914796 36.7368946,24.3227152 36.5098878,24.9142303 C36.2589014,25.5661899 36.3442687,26.3338667 36.7378537,27.0876444 L36.7378537,27.0876444 Z M24.6860306,27.0876444 C24.499949,26.3526141 24.575085,25.7662707 24.9069626,25.3829172 C25.2250918,25.015402 25.7120374,24.9038869 26.0563844,24.9539879 L28.009602,25.3205333 L28.0585204,25.3292606 L28.3299694,25.3292606 L29.7105544,23.8249374 L29.7230238,23.8110384 C29.9593027,23.5337051 30.6754932,22.6923313 29.9433163,21.6198465 L28.0994456,18.5459071 C28.4038265,18.5025939 28.7117245,18.4751192 28.9946837,18.4751192 L29.0068333,18.4741495 C29.0161054,18.4757657 29.9407585,18.4612202 30.931915,19.0440081 C31.0665204,19.3349172 31.2535612,19.7182707 31.4610646,20.1442909 C31.8485748,20.9378263 32.3310442,21.9259475 32.4643707,22.3251394 C32.507534,22.4502303 32.6389422,22.8319677 32.1756565,23.3148768 L28.6401054,27.0876444 L24.6860306,27.0876444 Z M24.1316224,24.6999273 C23.7600986,25.1317657 23.3984864,25.8823111 23.6322075,27.0876444 L17.3415612,27.0876444 C18.0177857,27.0204121 18.5079286,26.8604121 18.8477993,26.5042101 C19.2596088,26.0707556 19.2960578,25.4789172 19.2819898,25.0558061 C19.2960578,25.0189576 19.3641599,24.8760889 19.6720578,24.7354828 L20.2136769,24.485301 L19.8888333,23.9797657 C19.3516905,23.1448566 19.5854116,21.3195636 19.7945136,20.3275636 L19.8431122,20.3275636 C21.9753776,20.3275636 23.3562823,19.8798869 24.8110442,19.406998 C25.1912007,19.2832 25.5819082,19.1561697 25.9956361,19.0343111 L26.0084252,19.0301091 C26.0164184,19.0272 26.4416565,18.890796 27.0206837,18.7537455 L29.0720578,22.171604 L29.0902823,22.199402 C29.2945884,22.4948364 29.3208061,22.6887758 28.9480034,23.1277253 L27.9207177,24.2483717 L26.2351122,23.9322505 L26.2204048,23.9296646 C25.4588129,23.8110384 24.6390306,24.1135838 24.1316224,24.6999273 L24.1316224,24.6999273 Z M12.9712007,24.4749576 C12.5334932,25.1104323 12.4797789,25.9876848 12.8090986,27.0876444 L11.7466429,27.0876444 L11.7466429,18.6978263 C12.127119,18.6393212 12.5366905,18.5287758 12.9178061,18.3529374 C12.8970238,18.7188364 12.8468265,19.0078061 12.7796837,19.3950384 C12.7633776,19.484897 12.7477109,19.5783111 12.7304456,19.6785131 L12.6290918,20.2839273 L13.2381735,20.2839273 C14.148119,20.2839273 14.8262619,20.1400889 15.3474184,19.867604 L15.3474184,23.3701495 C15.3474184,23.4600081 15.2793163,23.5327354 15.1945884,23.5327354 L15.0395204,23.5327354 C14.1362891,23.5327354 13.3826905,23.8760081 12.9712007,24.4749576 L12.9712007,24.4749576 Z M10.717119,26.1780687 L5.87356122,24.9038869 L1.02840476,26.1780687 L1.02840476,17.4184727 L5.87356122,16.1475232 L10.717119,17.4184727 L10.717119,26.1780687 Z M1.65123469,27.0876444 L5.87356122,25.9770182 L10.095568,27.0876444 L1.65123469,27.0876444 Z M3.33971769,14.1922909 C3.54146599,13.879402 4.00443197,13.609503 4.58377891,13.7116444 L5.02276531,13.7882505 L5.15928912,13.3612606 C5.19701701,13.2465131 5.24753401,13.1624727 5.31595578,13.0962101 C5.43873129,12.9792 5.62257483,12.923604 5.85757483,12.9300687 C6.4762483,12.9507556 7.25158844,13.3864727 7.88113265,14.0691394 C8.11037755,14.3173818 8.31340476,14.6053818 8.4950102,14.8966141 C8.52890136,14.9580283 8.56982653,15.0236444 8.60659524,15.081503 C8.65647279,15.1626343 8.69995578,15.2295434 8.70794898,15.2453818 C8.73064966,15.2851394 9.04206463,15.7577051 9.0200034,15.7884121 C9.23358163,15.4861899 9.44556122,15.1833212 9.65881973,14.8820687 C9.66457483,14.8733414 9.65562245,14.8458667 9.63707823,14.8064323 C9.58943878,14.7026747 9.4762551,14.5229576 9.40911224,14.4169374 C9.39312585,14.3910788 9.37745918,14.3652202 9.36019388,14.3390384 C9.36019388,14.337099 9.35763605,14.3341899 9.35667687,14.332897 C9.34996259,14.3219071 9.32278571,14.2769778 9.28505782,14.2181495 C9.21279932,14.1056646 9.11176531,13.943402 9.06604422,13.8538667 L10.406983,11.6878869 C10.7420578,11.7583515 11.0259762,11.7686949 11.1628197,11.7686949 L11.1957517,11.7686949 C13.0850238,11.7686949 15.0407993,10.666796 15.0407993,8.82178586 L15.0407993,8.77685657 C15.0165,8.27455354 14.9240986,7.7952 14.8489626,7.4102303 C14.8000442,7.15584646 14.7533639,6.91665455 14.7533639,6.79673535 C14.7533639,6.59471515 15.0350442,6.37006869 15.4375816,6.37006869 L16.0485816,6.37006869 L15.7716973,4.76877576 C16.6324048,4.12909899 17.1602755,3.08699798 17.1340578,2.09047273 C18.0599898,2.80901818 18.7144728,4.05540202 18.834051,5.38097778 C18.8695408,5.76594747 18.7944048,6.30445253 18.6709898,6.87075556 L18.6051259,7.10768485 L18.6163163,7.11091717 C18.3963435,8.03503838 18.0724592,8.98598788 17.9026837,9.43657374 L17.7440986,9.85289697 L18.1296905,10.0736646 C18.8180646,10.4686545 19.2423435,10.7569778 19.2423435,11.6752808 C19.2423435,12.7277253 18.3049014,13.5351596 17.3987925,13.7064727 L16.1601667,13.9401697 L17.2085544,14.647402 C17.5445884,14.8736646 17.7440986,15.2434424 17.7440986,15.6348768 C17.7440986,16.2965333 17.1887313,16.8343919 16.5048333,16.8343919 L16.1090102,16.8343919 L15.9983844,17.2009374 C15.6131122,18.4673616 15.1955476,19.0860283 13.8523707,19.2185535 C13.9153571,18.8335838 13.9575612,18.4634828 13.9575612,17.9395232 C13.9575612,17.8170182 13.9473299,17.4724525 13.942534,17.3615838 L13.8821054,16.1811394 L13.0613639,17.0244525 C12.7832007,17.3105131 12.2879422,17.5380687 11.7466429,17.6460283 L11.7466429,16.6165333 L5.87356122,15.0750384 L3.7835,15.6238869 C3.31701701,15.1519677 3.22333673,14.3726545 3.33971769,14.1922909 L3.33971769,14.1922909 Z M9.68184014,10.3784727 C9.69782653,10.3070384 9.7547381,10.2501495 9.81516667,10.2517657 L10.699534,10.2802101 C11.7782959,10.2423919 12.8765612,9.79342222 12.9999762,8.65855354 C12.9999762,7.88990707 12.4602755,7.14194747 11.6986837,7.14194747 C11.2916701,7.14194747 10.8331803,7.42639192 10.3180986,7.77095758 C9.98270408,7.99560404 9.71796939,8.17338182 9.51718027,8.17338182 C9.38033673,8.17338182 9.27130952,8.08190707 9.27130952,8.00659394 C9.27130952,7.99398788 9.27354762,7.98073535 9.27802381,7.96845253 L9.84266327,7.20368485 L9.35443878,6.87269495 C9.25052721,6.8032 9.0887449,6.67358384 9.07052041,6.57661414 C9.06252721,6.53071515 9.12743197,6.44893737 9.14789456,6.42469495 C9.34996259,6.18614949 9.58208503,5.89491717 9.81772449,5.53645253 C9.96096259,5.33249293 10.0444116,5.21968485 10.2867653,5.21968485 C10.5252823,5.21968485 10.7203163,5.41362424 10.7203163,5.6512 C10.7203163,5.80861414 10.8913707,5.93241212 11.1033503,5.93241212 C11.3156497,5.93241212 11.4102891,5.78081616 11.5410578,5.6512 C11.5410578,5.6512 12.0452687,5.18380606 11.7782959,4.96303838 C11.473915,4.7112404 10.2541531,5.2251798 10.5937041,4.09289697 L10.6781122,3.93128081 C10.8079218,3.75673535 11.3917449,3.31972525 12.598398,3.31972525 C12.825085,3.31972525 13.0667993,3.33653333 13.3142687,3.36788687 L13.4945952,3.39051313 L16.054017,1.79536162 C16.0760782,1.84934141 16.0837517,1.88812929 16.0837517,1.88812929 L16.0859898,1.90364444 C16.2196361,2.68683636 15.7317313,3.61903838 14.9506361,4.07188687 L14.6382619,4.25289697 L14.8400102,5.42008889 C14.1829694,5.62340202 13.7247993,6.15608889 13.7247993,6.79673535 C13.7247993,7.0171798 13.7759558,7.27867475 13.8402211,7.60934141 C13.9105612,7.97653333 13.9914524,8.39188687 14.0122347,8.81435152 C14.0122347,10.0284121 12.3554048,10.8316444 10.9527585,10.7860687 L10.9163095,10.7854222 C10.858119,10.7828364 9.96543878,10.711402 9.7467449,10.5365333 C9.70422109,10.5051798 9.67032993,10.433099 9.68184014,10.3784727 L9.68184014,10.3784727 Z M11.8025952,2.27536162 C11.9634184,2.06655354 12.2268741,1.83576566 12.5414864,1.62598788 C12.786398,1.46210909 13.107085,1.31568485 13.4191395,1.22485657 C13.9153571,1.08004848 14.485432,1.07067475 15.0746905,1.18574545 L13.2595952,2.31705859 C13.0335476,2.29378586 12.8116565,2.28150303 12.598398,2.28150303 C12.2892211,2.28150303 12.0062619,2.30671515 11.7479218,2.34905859 C11.7658265,2.3241697 11.7843707,2.29895758 11.8025952,2.27536162 L11.8025952,2.27536162 Z M39.4616156,2.00869495 L46.3066701,2.00869495 C45.6646565,2.92279596 44.7511939,3.35431111 43.4892279,3.35431111 L38.4352891,3.35431111 C38.8378265,2.99681616 39.1812143,2.5481697 39.4616156,2.00869495 L39.4616156,2.00869495 Z M39.1185476,5.92142222 L34.0658878,5.92142222 C34.5135068,5.52546263 34.8850306,5.01378586 35.1817381,4.39253333 L42.0558878,4.39253333 C41.4090782,5.43172525 40.4630034,5.92142222 39.1185476,5.92142222 L39.1185476,5.92142222 Z M35.0970102,8.43261414 L30.0446701,8.43261414 C30.4769422,8.04796768 30.8395136,7.55568485 31.1327041,6.95964444 L37.9975816,6.95964444 C37.3523707,7.95940202 36.4162075,8.43261414 35.0970102,8.43261414 L35.0970102,8.43261414 Z M36.2589014,12.3298263 C37.8588197,12.5964929 39.1697041,13.3244121 40.1538265,14.4938667 C40.3651667,14.7443717 40.5675544,15.0103919 40.7673844,15.2987152 C38.0749558,14.9412202 37.1381531,14.5449374 35.631915,12.234796 C35.8336633,12.261301 36.0398878,12.2923313 36.2589014,12.3298263 L36.2589014,12.3298263 Z M47.0020782,23.5324121 C47.1011939,23.6930586 47.1859218,23.8436848 47.2677721,23.9894626 C47.3681667,24.1688566 47.4663231,24.343402 47.5814252,24.5263515 C46.8022483,24.4765737 46.2120306,24.0405333 45.6656156,23.2156444 C46.1698265,23.0375434 46.7785884,23.1639273 47.0020782,23.5324121 L47.0020782,23.5324121 Z M40.6008061,27.0876444 L41.6511122,26.6865131 L41.6658197,26.6813414 C43.1573503,26.0571798 43.3693299,25.6676848 43.2986701,24.6650182 L43.2986701,20.6136242 C44.4330646,23.5256242 45.5051122,25.5729778 47.7032415,25.5723313 C48.0018673,25.5723313 48.3212755,25.5348364 48.6656224,25.4566141 L49.5231327,25.2597657 L48.9322755,24.6023111 C48.5562755,24.1821091 48.3737109,23.8559677 48.1626905,23.4790788 C48.0763639,23.3245737 47.9862007,23.1642505 47.8787721,22.9874424 C47.3646497,22.1438061 46.1400918,21.8574222 45.1489354,22.3063919 C44.7000374,21.403604 44.2473027,20.2267152 43.7024864,18.7741091 L43.5835476,18.4974222 C43.4892279,18.281503 43.3955476,18.0626747 43.2986701,17.8438465 L43.2986701,17.8079677 L43.2839626,17.8079677 C42.9453707,17.0406141 42.5859966,16.2706747 42.1550034,15.5495434 C41.7639762,14.8943515 41.3649558,14.3293414 40.9387585,13.8225131 C39.7915748,12.4604121 38.2738265,11.6138667 36.4264388,11.3051798 C35.1497653,11.0924929 34.246534,11.0478869 33.1006293,10.9906747 C32.8646701,10.9796848 32.6159218,10.9664323 32.3515068,10.9525333 C31.8335476,10.9237657 30.7630986,10.8348768 29.7278197,10.7482505 C29.0298537,10.6913616 28.313983,10.6318869 27.7506224,10.5895434 C27.7883503,10.4295434 27.811051,10.2637253 27.811051,10.0914424 C27.811051,9.85968485 27.7902687,9.65443232 27.7506224,9.47083636 L35.0970102,9.47083636 C36.9910782,9.47083636 38.3617517,8.62396768 39.178017,6.95770505 C41.0602551,6.94025051 42.4216565,6.0772202 43.2257721,4.39253333 L43.4892279,4.39253333 C45.4491599,4.39253333 46.8505272,3.48812929 47.6533639,1.7042101 L47.9849218,0.970149495 L23.0905884,0.970149495 C21.4555,0.970149495 20.0634048,2.04909899 19.5422483,3.71762424 L19.5262619,3.77548283 C19.101983,2.58275556 18.3279218,1.56942222 17.3348469,0.973058586 C15.9552211,0.14299798 14.3837585,-0.135951515 13.132983,0.227361616 C12.7192551,0.348573737 12.3077653,0.537018182 11.9736497,0.760048485 C11.6858946,0.95140202 11.2836769,1.25847273 10.9917653,1.63665455 C10.6736361,2.04974545 10.3657381,2.54881616 10.1400102,3.01556364 C9.99645238,3.13483636 9.8855068,3.25701818 9.80813265,3.37499798 L9.51078571,3.94065455 L9.49447959,3.97297778 C9.13798299,4.78687677 8.70315306,5.35091717 8.36679932,5.74978586 C8.03044558,6.14509899 8.0135,6.52037172 8.05922109,6.76570505 C8.10813946,7.03463434 8.2507381,7.25346263 8.40228912,7.41895758 L8.39429592,7.43447273 C8.29518027,7.60707879 8.2427449,7.80489697 8.2427449,8.00659394 C8.2427449,8.67051313 8.81409864,9.17281616 9.51718027,9.17281616 C10.0284252,9.17281616 10.4456701,8.93200808 10.8878537,8.63625051 C11.0672211,8.51568485 11.5423367,8.19697778 11.6986837,8.17952323 C11.8949966,8.17952323 12.0750034,8.3602101 12.0750034,8.55867475 C12.0750034,9.10299798 11.3805544,9.3961697 10.8833776,9.43237172 L9.87303741,9.54130101 C9.14469728,9.61079596 8.79907143,10.0006141 8.79907143,10.3497051 C8.79907143,10.6991192 8.96660884,10.8966141 9.08203061,11.0136242 L9.15716667,11.0905535 L9.41358844,11.3219879 L8.34058163,13.0671192 C7.5767517,12.3514828 6.68151361,11.9183515 5.88922789,11.8931394 C5.37638435,11.8756848 4.93356122,12.0324525 4.6077585,12.3437253 C4.51279932,12.4345535 4.42967007,12.5373414 4.3590102,12.6514424 L4.34110544,12.6514424 C3.4935068,12.6514424 2.81184694,13.1097859 2.47869048,13.6250182 C2.11547959,14.1874424 2.24656803,15.1623111 2.70665646,15.9057455 L0.000159863936,16.6165333 L0.000159863936,29.6958061 L49.6372755,29.6958061 L49.6372755,27.0876444 L40.6008061,27.0876444 Z" id="Fill-1" fill="#C21B17" mask="url(#mask-2)"></path>
                    </g>
                    <polygon id="Fill-4" fill="#C21B17" points="9.64398435 19.0161131 6.40705918 18.1669818 6.40705918 19.2388202 9.64398435 20.088598"></polygon>
                    <polygon id="Fill-6" fill="#C21B17" points="2.10259456 20.0887273 5.33856054 19.2389495 5.33856054 18.1658182 2.10259456 19.0162424"></polygon>
                    <polygon id="Fill-8" fill="#C21B17" points="2.10259456 22.2440081 5.33856054 21.3952 5.33856054 20.3220687 2.10259456 21.1708768"></polygon>
                    <polygon id="Fill-10" fill="#C21B17" points="9.64398435 21.1707798 6.40705918 20.3219717 6.40705918 21.395103 9.64398435 22.2439111"></polygon>
                    <polygon id="Fill-12" fill="#C21B17" points="9.64398435 23.3282909 6.40705918 22.4775434 6.40705918 23.5506747 9.64398435 24.4001293"></polygon>
                    <polygon id="Fill-14" fill="#C21B17" points="2.10259456 24.4002586 5.33856054 23.550804 5.33856054 22.4776727 2.10259456 23.3284202"></polygon>
                    <path d="M60.3027585,15.2976808 C59.5999966,15.5064889 58.8953163,15.7088323 58.2002279,15.9405899 C57.9358129,16.0288323 57.7014524,16.021398 57.4424728,15.9373576 C56.7365136,15.7078626 56.0241599,15.4964687 55.3137245,15.2805495 C55.1787993,15.239499 55.0243707,15.1729131 55.0042279,15.4121051 C55.2935816,15.6199434 55.5608741,15.8106505 55.826568,16.0036202 C56.4378878,16.4480646 57.0456905,16.8973576 57.6640442,17.3321051 C57.7337449,17.3809131 57.891051,17.3902869 57.9565952,17.3437414 C58.8582279,16.7085899 59.7512279,16.0605091 60.6442279,15.4172768 C60.5921122,15.1696808 60.4303299,15.2598626 60.3027585,15.2976808" id="Fill-16" fill="#C21B17"></path>
                    <path d="M67.2846245,12.4466747 L66.2119374,12.4466747 L66.2119374,7.27010909 L66.8344476,7.27010909 C67.8722844,7.29564444 68.463781,7.90784646 68.6767197,9.71536162 L69.0587946,9.71536162 L69.0552776,4.36198788 C69.0476041,4.37265455 68.6792776,4.36198788 68.6792776,4.36198788 C68.6792776,4.38913939 68.6057401,6.66372525 66.7877673,6.63140202 L66.2119374,6.63140202 L66.2180122,1.79002828 C69.2212163,1.79002828 70.3236381,1.63746263 70.8460735,5.35980606 L71.1629238,5.35980606 L71.1629238,1.21726061 L62.9871619,1.22049293 L62.9871619,1.79002828 L64.402917,1.79002828 L64.402917,12.4457051 L62.8426449,12.4457051 L62.8426449,13.0068364 L71.2681143,13.0068364 L71.2681143,8.6532202 L70.8460735,8.6532202 C70.4262707,11.9456646 69.6007333,12.4466747 67.2846245,12.4466747" id="Fill-18" fill="#C21B17"></path>
                    <path d="M57.7311871,13.1142788 C58.8953163,13.1142788 59.7157381,12.5153293 60.1547245,11.8349253 C60.1595204,11.8197333 61.6225952,13.0024404 61.6280306,13.0069657 L61.6280306,7.37302626 L62.8711327,7.37302626 L62.8711327,6.84454141 L58.2587381,6.84454141 L58.2587381,7.37302626 L59.8381939,7.37302626 L59.8381939,11.2059152 C59.5712211,12.178198 58.1529082,12.5848242 57.7311871,12.5848242 C54.7845748,12.5848242 54.9949558,8.22732929 54.9949558,7.06046061 C54.9949558,5.99379394 54.8891259,1.53254141 57.7311871,1.53254141 C59.7323639,1.53254141 60.7852279,3.54724848 61.2075884,5.35896566 L61.5273163,5.35896566 C61.5273163,4.61262222 61.539466,1.06514747 61.532432,1.07322828 C61.539466,1.04510707 60.1595204,2.07492525 60.1547245,2.05811717 C60.1854184,2.05197576 59.5245408,1.10458182 57.7311871,1.10458182 C54.2538265,1.10458182 52.9790714,4.61262222 52.9892417,7.06046061 C53.0052891,9.29884444 54.0268197,13.1142788 57.7311871,13.1142788" id="Fill-20" fill="#C21B17"></path>
                    <path d="M96.6368279,6.72035556 L94.7443585,6.72035556 L94.7443585,1.78330505 L97.1640592,1.78330505 C98.5842905,2.00019394 98.6428007,3.65966869 98.6428007,4.18750707 C98.6428007,5.46427475 98.1139707,6.72035556 96.6368279,6.72035556 L96.6368279,6.72035556 Z M104.851597,3.65966869 L106.643032,8.7538101 L103.169828,8.7538101 L104.851597,3.65966869 Z M103.485719,12.4389818 C103.328093,12.4389818 102.28578,12.4700121 102.220876,11.736598 C102.177073,11.2058505 102.907012,9.29910303 102.907012,9.29910303 L106.779236,9.29910303 C106.777318,9.29231515 107.982692,12.4412444 107.993882,12.4412444 L106.643032,12.4412444 L106.643032,13.0069074 L117.192134,13.0069074 L117.192134,8.65296162 L116.769134,8.65296162 C116.349012,11.9457293 115.523154,12.4389818 113.207685,12.4389818 L113.067644,12.4389818 L113.067644,1.78556768 L114.539991,1.78556768 L114.539991,1.21150707 L109.697073,1.21150707 L109.697073,1.78556768 L111.170379,1.78556768 L111.170379,12.4389818 L110.000175,12.4389818 L105.695039,0.893120535 L105.063256,0.893120535 C105.077005,0.886981818 101.48742,11.3687596 101.479427,11.3994667 C101.48742,11.3687596 101.208937,12.2993455 100.61712,12.4150626 C100.072624,12.4412444 100.113869,12.1542141 100.113869,12.0530424 L100.113869,10.0334869 C100.113869,9.50403232 100.072624,8.29999192 99.5281272,7.74694141 C98.9190456,7.12633535 97.8757735,7.0797899 97.8991136,7.05619394 C97.8991136,7.05619394 100.545501,6.50443636 100.545501,3.96156768 C100.545501,2.17861818 99.3187054,1.29166869 97.2698891,1.21409293 L91.4533993,1.21409293 L91.4533993,1.7878303 L92.9407735,1.7878303 L92.9407735,12.4412444 L91.4533993,12.4412444 L91.4533993,13.0069074 L96.2243789,13.0069074 L96.2243789,12.4412444 L94.7363653,12.4412444 L94.7363653,7.31930505 L96.7212361,7.31930505 C100.163427,7.60633535 96.1297395,13.0136889 100.64142,13.0069074 L103.485719,13.0069074 L103.485719,12.4389818 Z" id="Fill-22" fill="#C21B17"></path>
                    <path d="M73.9005619,2.70361212 L73.9005619,11.4121374 C73.9005619,12.2612687 72.6427524,12.584501 72.1164803,12.584501 L72.1110449,12.584501 L72.1110449,13.0066481 L76.2189088,13.0066481 L76.2189088,12.584501 C75.6929565,12.584501 74.426834,12.2612687 74.426834,11.4121374 L74.4402626,3.7453899 C76.6483034,6.93407677 80.8143578,13.0134303 80.8540041,13.0066481 L81.0615075,13.0066481 L81.0615075,2.70361212 C81.119698,1.81504646 82.1178884,1.78304646 82.5389701,1.78304646 L83.9074054,1.78304646 L83.9074054,12.4458343 L82.3468136,12.4458343 L82.3468136,13.0066481 L90.772283,13.0066481 L90.772283,8.65302626 L90.3505619,8.65302626 C89.9310789,11.9457939 89.1065007,12.446804 86.7891129,12.446804 L85.7157864,12.446804 L85.7157864,7.26991515 L86.3373374,7.26991515 C87.3770925,7.29577374 87.9685891,7.90829899 88.1796095,9.71516768 L88.563283,9.71516768 L88.5591265,4.36211717 C88.5520925,4.37278384 88.1844054,4.36211717 88.1844054,4.36211717 C88.1844054,4.38926869 88.1086299,6.66385455 86.293215,6.63153131 L85.7157864,6.63153131 L85.7157864,1.78304646 C88.7180313,1.78304646 89.8271673,1.63726869 90.3505619,5.35993535 L90.667732,5.35993535 L90.667732,1.21706667 L78.7460381,1.21706667 L78.7460381,1.78304646 L79.0580925,1.78304646 C79.4778952,1.78304646 80.4767252,1.81504646 80.533317,2.70361212 L80.5323578,2.70361212 L80.5323578,9.50021818 L74.9569429,1.21706667 L71.9204871,1.21706667 L71.9204871,1.78304646 L72.4253374,1.78304646 C73.023868,1.78304646 73.8625143,1.80955152 73.9005619,2.70361212" id="Fill-24" fill="#C21B17"></path>
                    <polygon id="Fill-26" fill="#C21B17" points="122.490473 12.4340364 120.997024 12.4340364 120.997024 1.78547071 122.490473 1.78547071 122.490473 1.21011717 117.735799 1.21011717 117.735799 1.78547071 119.227969 1.78547071 119.233085 12.4340364 117.735799 12.4340364 117.735799 13.006804 122.490473 13.006804"></polygon>
                    <path d="M136.441384,17.3327192 C136.509805,17.3805576 136.663595,17.3899313 136.72818,17.3443556 C137.611907,16.7218101 138.487003,16.0866586 139.362737,15.4557091 C139.311581,15.2132848 139.152996,15.3018505 139.027663,15.338699 C138.338969,15.5433051 137.648037,15.7420929 136.966697,15.969002 C136.707397,16.0556283 136.478152,16.0481939 136.223969,15.9657697 C135.531758,15.7404768 134.834112,15.5339313 134.137744,15.3222141 C134.005057,15.2818101 133.853826,15.2165172 133.834322,15.4511838 C134.117601,15.6548202 134.379778,15.8416485 134.640037,16.0307394 C135.239527,16.4661333 135.83518,16.9070222 136.441384,17.3327192" id="Fill-28" fill="#C21B17"></path>
                    <path d="M144.808343,17.3327192 C144.876765,17.3805576 145.030554,17.3899313 145.095139,17.3443556 C145.979186,16.7218101 146.853962,16.0866586 147.729697,15.4557091 C147.67854,15.2132848 147.519955,15.3018505 147.394622,15.338699 C146.706248,15.5433051 146.014996,15.7420929 145.333976,15.969002 C145.074676,16.0556283 144.845112,16.0481939 144.590928,15.9657697 C143.899037,15.7404768 143.201071,15.5339313 142.504703,15.3222141 C142.372016,15.2818101 142.220785,15.2165172 142.201282,15.4511838 C142.484561,15.6548202 142.746737,15.8416485 143.006996,16.0307394 C143.606486,16.4661333 144.202139,16.9070222 144.808343,17.3327192" id="Fill-30" fill="#C21B17"></path>
                    <path d="M60.7554932,27.2667475 C60.6279218,27.5925657 60.4808469,27.8757172 60.3142687,28.1168485 C60.1480102,28.358303 59.9673639,28.5629091 59.7732891,28.7309899 C59.5788946,28.8993939 59.3876973,29.0341818 59.1990578,29.1350303 C58.7549558,29.3819798 58.2718469,29.5225859 57.7506905,29.5558788 L57.7004932,29.5558788 C57.6448605,29.5558788 57.5367925,29.5419798 57.3759694,29.5138586 C57.2151463,29.4857374 57.0319422,29.415596 56.8266769,29.3034343 C56.6210918,29.1912727 56.4075136,29.0202828 56.1856224,28.7901414 C55.9637313,28.5603232 55.7610238,28.2432323 55.5781395,27.8391919 C55.3946156,27.4351515 55.244983,26.9247677 55.1282823,26.3073939 C55.0119014,25.6906667 54.9537109,24.944 54.9537109,24.0690101 C54.9537109,23.160404 55.0144592,22.3943434 55.136915,21.771798 C55.259051,21.1489293 55.4169966,20.6301414 55.6110714,20.2151111 C55.805466,19.7997576 56.0164864,19.4771717 56.2441327,19.2470303 C56.4714592,19.0175354 56.6875952,18.8462222 56.8931803,18.7340606 C57.0984456,18.621899 57.2787721,18.5543434 57.4341599,18.5320404 C57.5895476,18.5094141 57.6893027,18.498101 57.7340646,18.498101 L57.7506905,18.498101 C58.1612211,18.498101 58.524432,18.5514343 58.8409626,18.6577778 C59.1571735,18.7647677 59.4318197,18.9050505 59.6652211,19.0789495 C59.897983,19.2528485 60.0952551,19.4519596 60.2560782,19.6766061 C60.4165816,19.9009293 60.5527857,20.1307475 60.664051,20.3663838 C60.9191939,20.9165253 61.0688265,21.5387475 61.1135884,22.2346667 L61.4464252,22.2346667 L61.4464252,18.0100202 L60.1313844,19.0033131 C59.9980578,18.7899798 59.8202891,18.6244848 59.5987177,18.5065051 C59.3765068,18.3888485 59.1514184,18.2993131 58.9240918,18.2372525 C58.6967653,18.1758384 58.4854252,18.136404 58.2916701,18.1192727 C58.0975952,18.1024646 57.9505204,18.0940606 57.8504456,18.0940606 L57.7340646,18.0940606 C57.6893027,18.0940606 57.5422279,18.1053737 57.2928401,18.128 C57.0431327,18.1506263 56.7432279,18.2204444 56.3934456,18.338101 C56.0443027,18.4560808 55.6695816,18.635798 55.2699218,18.8769293 C54.8705816,19.1183838 54.5012959,19.4606869 54.1630238,19.9035152 C53.8241122,20.3469899 53.5440306,20.907798 53.3221395,21.5865859 C53.1002483,22.2653737 52.9893027,23.0928485 52.9893027,24.0690101 C53.0334252,25.1799596 53.2332551,26.1729293 53.5884728,27.0479192 C53.7435408,27.4186667 53.9353776,27.7832727 54.1630238,28.1420606 C54.3903503,28.5011717 54.6707517,28.8211717 55.0035884,29.1017374 C55.3367449,29.3819798 55.7277721,29.6092121 56.1773095,29.7831111 C56.6268469,29.9570101 57.1515204,30.0439596 57.7506905,30.0439596 C58.1832823,30.0439596 58.5688741,29.9877172 58.9077857,29.8755556 C59.2460578,29.7637172 59.5427653,29.6147071 59.7982279,29.4294949 C60.0536905,29.2446061 60.2727041,29.0370909 60.4559082,28.8069495 C60.6391122,28.5771313 60.7970578,28.3385859 60.9303844,28.0916364 C61.2299694,27.5191919 61.4297993,26.8688485 61.5298741,26.1393131 L61.0467653,26.1393131 C60.9802619,26.5659798 60.8827449,26.9415758 60.7554932,27.2667475" id="Fill-32" fill="#C21B17"></path>
                    <path d="M69.7122544,27.8308202 C69.5181796,28.318901 69.3046014,28.675103 69.0712,28.8994263 C68.7936762,29.1686788 68.4829007,29.3202747 68.1388735,29.3538909 L65.1922612,29.3538909 L65.1922612,24.2206384 L66.1412136,24.2206384 C66.5076218,24.2768808 66.7902612,24.4310626 66.9900912,24.6835071 C67.1899211,24.9359515 67.3398735,25.2022949 67.4399483,25.4828606 C67.5617646,25.8083556 67.6337034,26.1729616 67.6560844,26.5766788 L67.9061116,26.5766788 L67.9061116,21.3761939 L67.6560844,21.3761939 C67.6119619,21.7579313 67.5285129,22.1115475 67.4063769,22.4367192 C67.2951116,22.7172848 67.137166,22.9778101 66.9322204,23.2189414 C66.7263156,23.460396 66.4411184,23.6090828 66.0747102,23.665002 L65.1922612,23.665002 L65.1922612,18.7169616 L67.9061116,18.7169616 C68.249819,18.7505778 68.5605946,18.9021737 68.8384381,19.1714263 C69.0712,19.3957495 69.2847782,19.7522747 69.4791728,20.2403556 C69.6732476,20.7281131 69.7707646,21.4214465 69.7707646,22.3187394 L70.0035265,22.3187394 L70.0035265,18.1445172 L61.9457442,18.1445172 L61.9457442,18.7169616 L63.3941116,18.7169616 L63.3941116,29.3538909 L61.9457442,29.3538909 L61.9457442,29.9260121 L70.3363633,29.9260121 L70.3363633,25.7521131 L70.0035265,25.7521131 C70.0035265,26.6500525 69.9063293,27.3424162 69.7122544,27.8308202" id="Fill-34" fill="#C21B17"></path>
                    <path d="M78.6137347,25.937196 C78.6137347,25.8253576 78.5942313,25.6259232 78.5552245,25.3398626 C78.5162177,25.053802 78.4081497,24.7422061 78.2310204,24.4057212 C78.0532517,24.0692364 77.7811633,23.7440646 77.4150748,23.4295596 C77.0486667,23.115701 76.5434966,22.8739232 75.9002041,22.7058424 L73.6860884,22.1337212 C73.3973741,22.0438626 73.1419116,21.9207111 72.9200204,21.763297 C72.731381,21.6288323 72.553932,21.4578424 72.3873537,21.250004 C72.2207755,21.0421657 72.1376463,20.7816404 72.1376463,20.4674586 C72.170898,20.0857212 72.2815238,19.7437414 72.470483,19.4405495 C72.6258707,19.1829333 72.8701429,18.9469737 73.2029796,18.7339636 C73.5361361,18.5209535 74.0022993,18.4142869 74.6014694,18.4142869 C75.1229456,18.4475798 75.5891088,18.5768727 75.9999592,18.801196 C76.1774082,18.9020444 76.3494218,19.0255192 76.516,19.171297 C76.6825782,19.3177212 76.8325306,19.4938828 76.9655374,19.7017212 C77.0988639,19.9095596 77.2040544,20.1587717 77.2817483,20.4503273 C77.3594422,20.7425293 77.398449,21.0790141 77.398449,21.4601051 L77.7146599,21.4601051 L77.7146599,17.9931152 L76.7324558,18.7339636 C76.5434966,18.5432566 76.3273605,18.4000646 76.0830884,18.3047111 C75.8388163,18.2093576 75.6060544,18.133398 75.3838435,18.0774788 C75.1287007,18.0215596 74.8678027,17.9931152 74.6014694,17.9931152 C74.235381,17.9931152 73.8523469,18.0687515 73.4526871,18.2203475 C73.0530272,18.3719434 72.6898163,18.5965899 72.3620952,18.8936404 C72.0350136,19.1910141 71.765483,19.5614384 71.5547823,20.0045899 C71.3440816,20.4480646 71.2388912,20.9610343 71.2388912,21.5444687 C71.2388912,22.1282263 71.3552721,22.6024081 71.588034,22.9670141 C71.8214354,23.331297 72.0765782,23.6202667 72.354102,23.8332768 C72.6757483,24.0805495 73.0418367,24.2602667 73.4526871,24.3721051 L75.9002041,24.9442263 C76.3219252,25.0563879 76.646449,25.2218828 76.8740952,25.4407111 C77.1014218,25.6595394 77.2737551,25.8867717 77.3901361,26.1224081 C77.506517,26.3580444 77.575898,26.5713778 77.5982789,26.7620848 C77.6203401,26.9531152 77.6315306,27.0817616 77.6315306,27.1489939 L77.6315306,27.1829333 C77.6315306,27.5643475 77.5701429,27.8927515 77.4483265,28.1671758 C77.3261905,28.4422465 77.1708027,28.6665697 76.9821633,28.8404687 C76.7935238,29.0146909 76.5850612,29.1517414 76.3577347,29.2529131 C76.1300884,29.3537616 75.9110748,29.4297212 75.7003741,29.4801455 C75.4893537,29.5305697 75.3032721,29.5619232 75.1427687,29.5729131 C74.9816259,29.583903 74.8678027,29.589398 74.8012993,29.589398 L74.7514218,29.589398 C74.3185102,29.589398 73.938034,29.5367111 73.6109524,29.4297212 C73.283551,29.3233778 73.0002721,29.1856808 72.7617551,29.0172768 C72.5229184,28.849196 72.3205306,28.6552566 72.1542721,28.4364283 C71.9876939,28.2179232 71.848932,27.9961859 71.7379864,27.7718626 C71.4825238,27.2333576 71.3383265,26.627297 71.3053946,25.9543273 L70.9888639,25.9543273 L70.9888639,29.8589737 L72.1376463,29.0172768 C72.4039796,29.2642263 72.6923741,29.4578424 73.0031497,29.597802 C73.3139252,29.7384081 73.5968844,29.8363475 73.8523469,29.8922667 C74.151932,29.9598222 74.451517,29.9989333 74.7514218,30.0105697 L74.8179252,30.0105697 C74.9064898,30.0105697 75.0593197,30.0018424 75.2757755,29.9850343 C75.4922313,29.9682263 75.7419388,29.9174788 76.024898,29.8337616 C76.3078571,29.749398 76.6020068,29.6230141 76.9073469,29.4549333 C77.2123673,29.2865293 77.4898912,29.0541253 77.7399184,28.7564283 C77.9893061,28.4593778 78.197449,28.0889535 78.3640272,27.6454788 C78.5306054,27.2026505 78.6137347,26.6609131 78.6137347,26.0215596 L78.6137347,25.937196 Z" id="Fill-36" fill="#C21B17"></path>
                    <path d="M109.573018,21.2582141 C109.573018,21.3370828 109.570141,21.4576485 109.564705,21.6202343 C109.55895,21.7831434 109.539767,21.9654465 109.506515,22.1674667 C109.473263,22.3694869 109.428501,22.577002 109.373188,22.7900121 C109.317556,23.0030222 109.239862,23.1966384 109.140107,23.3705374 C109.040352,23.5447596 108.91278,23.6879515 108.757073,23.7997899 C108.601685,23.9122747 108.418481,23.9681939 108.20778,23.9681939 L105.876964,23.9681939 L105.876964,18.7337697 L108.20778,18.7337697 C108.462923,18.756396 108.690569,18.8572444 108.890399,19.0369616 C109.067848,19.1937293 109.225794,19.4348606 109.364876,19.7603556 C109.503318,20.0858505 109.573018,20.5571232 109.573018,21.1741737 L109.573018,21.2582141 Z M110.14725,18.582497 C109.797467,18.3804768 109.450563,18.257002 109.106855,18.2120727 C108.762828,18.1671434 108.51312,18.1445172 108.357733,18.1445172 L102.547318,18.1445172 L102.547318,18.7337697 L104.078814,18.7337697 L104.078814,29.3538909 L102.547318,29.3538909 L102.547318,29.9260121 L107.325331,29.9260121 L107.325331,29.3538909 L105.876964,29.3538909 L105.876964,24.5235071 L108.224406,24.5235071 C108.268529,24.5235071 108.379794,24.515103 108.557243,24.4979717 C108.734692,24.4818101 108.942835,24.4423758 109.181671,24.3803152 C109.420188,24.318901 109.672773,24.2180525 109.939427,24.0774465 C110.20576,23.9374869 110.45227,23.7438707 110.679916,23.4969212 C110.907563,23.2502949 111.093324,22.9357899 111.237841,22.5543758 C111.381719,22.1732848 111.454297,21.7126788 111.454297,21.1741737 C111.454297,20.456598 111.323848,19.8951434 111.06295,19.491103 C110.802052,19.0873859 110.497032,18.7845172 110.14725,18.582497 L110.14725,18.582497 Z" id="Fill-38" fill="#C21B17"></path>
                    <path d="M119.594793,26.2402263 C119.478412,26.8572768 119.32846,27.3708929 119.145256,27.7804283 C118.962052,28.1899636 118.762222,28.5096404 118.546086,28.7394586 C118.32931,28.9696 118.11861,29.1409131 117.913024,29.2527515 C117.707759,29.3652364 117.527433,29.4353778 117.372365,29.463499 C117.216657,29.4916202 117.105712,29.5055192 117.039208,29.5055192 L116.939133,29.5055192 C116.88382,29.5055192 116.775433,29.4916202 116.61461,29.463499 C116.453786,29.4353778 116.270582,29.3652364 116.065317,29.2527515 C115.859732,29.1409131 115.646154,28.9696 115.424263,28.7394586 C115.202371,28.5096404 114.999664,28.1899636 114.81678,27.7804283 C114.633256,27.3708929 114.483943,26.8572768 114.366922,26.2402263 C114.250541,25.623499 114.192351,24.8716606 114.192351,23.9850343 C114.192351,23.0987313 114.250541,22.349802 114.366922,21.7379232 C114.483943,21.1266909 114.633256,20.6163071 114.81678,20.2064485 C114.999664,19.7969131 115.202371,19.4772364 115.424263,19.2470949 C115.646154,19.0172768 115.857494,18.8462869 116.057004,18.733802 C116.256834,18.6219636 116.437161,18.551499 116.597984,18.5233778 C116.758807,18.4955798 116.87263,18.4813576 116.939133,18.4813576 L117.039208,18.4813576 C117.105712,18.4813576 117.219535,18.4955798 117.380358,18.5233778 C117.541181,18.551499 117.721827,18.6219636 117.921657,18.733802 C118.121487,18.8462869 118.32931,19.0172768 118.546086,19.2470949 C118.762222,19.4772364 118.962052,19.7969131 119.145256,20.2064485 C119.32846,20.6163071 119.478412,21.1292768 119.594793,21.7466505 C119.711174,22.363701 119.769684,23.109398 119.769684,23.9850343 C119.769684,24.8716606 119.711174,25.623499 119.594793,26.2402263 M121.167854,27.0311758 C121.523072,26.1335596 121.722582,25.1182869 121.767344,23.9850343 C121.767344,23.0201859 121.656079,22.203701 121.434188,21.535903 C121.212297,20.8687515 120.934773,20.315701 120.601936,19.8780444 C120.26878,19.4407111 119.905569,19.1042263 119.511344,18.8685899 C119.117439,18.6329535 118.745596,18.4561455 118.396133,18.3381657 C118.046351,18.2201859 117.743888,18.1506909 117.488746,18.1277414 C117.233283,18.1054384 117.08365,18.0941253 117.039208,18.0941253 L117.005956,18.0941253 C116.961514,18.0941253 116.808684,18.1054384 116.548106,18.1277414 C116.287208,18.1506909 115.97899,18.2201859 115.624093,18.3381657 C115.268875,18.4561455 114.891596,18.6329535 114.491936,18.8685899 C114.092596,19.1042263 113.720433,19.4407111 113.376725,19.8780444 C113.032698,20.315701 112.749419,20.8687515 112.527528,21.535903 C112.305317,22.203701 112.194371,23.0201859 112.194371,23.9850343 C112.238814,25.1182869 112.438644,26.1335596 112.793861,27.0311758 C112.949249,27.4129131 113.140446,27.7859232 113.368093,28.1505293 C113.595419,28.5151354 113.878698,28.8406303 114.21729,29.1266909 C114.555562,29.4127515 114.952344,29.6428929 115.407637,29.8164687 C115.86261,29.9906909 116.390161,30.0776404 116.989331,30.0776404 C117.58882,30.0776404 118.115732,29.9906909 118.570705,29.8164687 C119.025997,29.6428929 119.419902,29.4127515 119.752739,29.1266909 C120.085895,28.8406303 120.368854,28.5151354 120.601936,28.1505293 C120.835018,27.7859232 121.023657,27.4129131 121.167854,27.0311758" id="Fill-40" fill="#C21B17"></path>
                    <polygon id="Fill-42" fill="#C21B17" points="127.232357 18.7168646 128.78048 18.7168646 128.78048 29.3537939 127.232037 29.3537939 127.232037 29.9262384 132.010051 29.9262384 132.010051 29.3537939 130.545058 29.3537939 130.545058 18.7168646 132.010051 18.7168646 132.010051 18.1444202 127.232357 18.1444202"></polygon>
                    <g id="Group-46" transform="translate(119.897959, 18.029931)">
                        <mask id="mask-4" fill="white">
                            <use href="#path-3"></use>
                        </mask>
                        <g id="Clip-45"></g>
                        <path d="M6.68400748,0.114650505 L1.58658571,0.114650505 L1.58658571,0.687094949 L3.20121156,0.687094949 L3.20121156,11.8457212 C3.19002109,12.159903 3.14589864,12.4459636 3.06820476,12.7042263 C3.00138163,12.9285495 2.89331361,13.1276606 2.74368095,13.3015596 C2.59372857,13.4754586 2.37983061,13.5624081 2.10262653,13.5624081 C2.02493265,13.5510949 1.95267415,13.5287919 1.88617075,13.4951758 C1.8305381,13.4725495 1.78066054,13.4360242 1.73621837,13.3859232 C1.69209592,13.3351758 1.66971497,13.2763475 1.66971497,13.2091152 L1.66971497,13.0407111 C1.73621837,12.9957818 1.79440884,12.9366303 1.84460612,12.863903 C1.8948034,12.7908525 1.9302932,12.7148929 1.95267415,12.6366707 C1.98624558,12.5468121 2.00798707,12.4517818 2.01917755,12.3506101 C2.01917755,12.1149737 1.98017075,11.9271758 1.9027966,11.7865697 C1.82510272,11.6466101 1.73621837,11.5428525 1.63646327,11.475297 C1.51400748,11.3970747 1.38675578,11.3463273 1.25374898,11.3240242 C0.998286395,11.3240242 0.803891837,11.3773576 0.670885034,11.4840242 C0.537558503,11.5906909 0.437803401,11.7054384 0.3713,11.8289131 C0.293606122,11.9746909 0.248844218,12.1485899 0.237973469,12.3506101 C0.237973469,12.7430141 0.332293197,13.043297 0.521252381,13.2511354 C0.709572109,13.4583273 0.914837415,13.6131556 1.13672857,13.7136808 C1.40338163,13.8374788 1.69721156,13.8992162 2.01917755,13.8992162 C2.50740204,13.8992162 2.9208102,13.8151758 3.25972177,13.6467717 C3.59799388,13.4783677 3.88095306,13.2621253 4.10859932,12.9983677 C4.33592585,12.7349333 4.51369456,12.4459636 4.64126599,12.1321051 C4.76883741,11.8176 4.86347687,11.5121455 4.9245449,11.2147717 C4.9852932,10.917398 5.0243,10.6481455 5.04092585,10.4066909 C5.0575517,10.1655596 5.06586463,9.99424646 5.06586463,9.89339798 L5.06586463,0.687094949 L6.68400748,0.687094949 L6.68400748,0.114650505 Z" id="Fill-44" fill="#C21B17" mask="url(#mask-4)"></path>
                    </g>
                    <path d="M140.028027,24.4056242 C139.849939,24.0691394 139.57849,23.7439677 139.212082,23.4294626 C138.845993,23.115604 138.340823,22.8741495 137.697211,22.7057455 L135.482776,22.1339475 C135.194061,22.0437657 134.939238,21.9209374 134.717347,21.7632 C134.528388,21.6287354 134.350619,21.4577455 134.184361,21.2499071 C134.017782,21.0423919 133.934653,20.7815434 133.934653,20.4673616 C133.967905,20.0859475 134.07885,19.7436444 134.26749,19.4407758 C134.423197,19.1828364 134.66715,18.9468768 134.999986,18.7338667 C135.333143,18.5208566 135.798986,18.4141899 136.398476,18.4141899 C136.919952,18.4474828 137.386116,18.5767758 137.796966,18.801099 C137.974415,18.9022707 138.146748,19.0254222 138.313327,19.1715232 C138.479585,19.3176242 138.629537,19.4941091 138.762544,19.7016242 C138.895871,19.9094626 139.001061,20.1586747 139.079075,20.4505535 C139.156129,20.7424323 139.195456,21.0789172 139.195456,21.4603313 L139.511986,21.4603313 L139.511986,17.9930182 L138.529463,18.7338667 C138.340823,18.5431596 138.124367,18.3999677 137.880095,18.3046141 C137.636143,18.2092606 137.403061,18.1336242 137.18117,18.0773818 C136.925707,18.0214626 136.66481,17.9930182 136.398476,17.9930182 C136.032388,17.9930182 135.649673,18.0689778 135.250014,18.2202505 C134.850354,18.3718465 134.486503,18.5964929 134.159422,18.8935434 C133.831701,19.1909172 133.56249,19.5616646 133.351789,20.0048162 C133.141088,20.4479677 133.035578,20.9612606 133.035578,21.5443717 C133.035578,22.1281293 133.151959,22.6023111 133.385361,22.9669172 C133.618122,23.3315232 133.873585,23.6201697 134.151109,23.8331798 C134.473075,24.0804525 134.839163,24.2601697 135.250014,24.3720081 L137.697211,24.9441293 C138.118612,25.0566141 138.443456,25.2217859 138.671102,25.4406141 C138.898429,25.6594424 139.070762,25.8866747 139.187143,26.1226343 C139.303524,26.3579475 139.372905,26.5712808 139.395286,26.7619879 C139.417347,26.9530182 139.428537,27.0816646 139.428537,27.148897 L139.428537,27.1828364 C139.428537,27.5642505 139.367469,27.8926545 139.245653,28.167402 C139.123197,28.4421495 138.968129,28.666796 138.77949,28.8406949 C138.590531,29.0145939 138.382707,29.1519677 138.155061,29.2528162 C137.927415,29.3539879 137.708082,29.4296242 137.497381,29.4800485 C137.286361,29.5304727 137.100599,29.5618263 136.939776,29.5728162 C136.778633,29.5841293 136.66481,29.589301 136.597986,29.589301 L136.548429,29.589301 C136.115837,29.589301 135.735041,29.5366141 135.408279,29.4296242 C135.080558,29.3232808 134.797599,29.1855838 134.559082,29.017503 C134.319925,28.849099 134.117857,28.6551596 133.951279,28.4366545 C133.78502,28.2178263 133.645939,27.9960889 133.534993,27.7717657 C133.27985,27.2332606 133.135333,26.6272 133.102401,25.9542303 L132.78619,25.9542303 L132.78619,29.8588768 L133.934653,29.017503 C134.200986,29.2641293 134.489381,29.4577455 134.800156,29.5977051 C135.110932,29.7383111 135.394211,29.8365737 135.649673,29.8924929 C135.948939,29.9600485 136.248844,29.9991596 136.548429,30.0104727 L136.614932,30.0104727 C136.703816,30.0104727 136.856327,30.0017455 137.072782,29.9852606 C137.289238,29.9681293 137.538946,29.9177051 137.822224,29.8336646 C138.104864,29.749301 138.399014,29.6232404 138.704034,29.4548364 C139.009374,29.2867556 139.287218,29.0540283 139.536925,28.7563313 C139.786633,28.4592808 139.994776,28.0891798 140.161034,27.6453818 C140.327612,27.2025535 140.410741,26.6611394 140.410741,26.0214626 L140.410741,25.937099 C140.410741,25.8255838 140.391238,25.6258263 140.352551,25.3400889 C140.313544,25.0537051 140.205476,24.7421091 140.028027,24.4056242" id="Fill-47" fill="#C21B17"></path>
                    <path d="M140.478588,22.2850586 L140.728295,22.2850586 C140.728295,21.3761293 140.82837,20.6753616 141.0282,20.1811394 C141.22803,19.6875636 141.444486,19.3287758 141.677567,19.1041293 C141.954452,18.8348768 142.265547,18.6829576 142.609894,18.6496646 L144.158016,18.6496646 L144.158016,29.3538263 L142.693023,29.3538263 L142.693023,29.9262707 L147.487663,29.9262707 L147.487663,29.3538263 L146.039295,29.3538263 L146.039295,18.6496646 L147.321084,18.6496646 C147.653921,18.6829576 147.953826,18.8348768 148.220159,19.1041293 C148.441731,19.3287758 148.647316,19.6875636 148.836275,20.1811394 C149.024595,20.6753616 149.119234,21.3761293 149.119234,22.2850586 L149.452071,22.2850586 L149.452071,18.1444525 L140.478588,18.1444525 L140.478588,22.2850586 Z" id="Fill-49" fill="#C21B17"></path>
                    <path d="M157.355488,26.2402263 C157.239427,26.8572768 157.089155,27.3708929 156.906271,27.7804283 C156.722747,28.1899636 156.523237,28.5096404 156.307101,28.7394586 C156.090645,28.9696 155.879624,29.1409131 155.674359,29.2527515 C155.468774,29.3652364 155.288448,29.4353778 155.13338,29.463499 C154.977672,29.4916202 154.866727,29.5055192 154.800223,29.5055192 L154.700148,29.5055192 C154.644516,29.5055192 154.536448,29.4916202 154.375624,29.463499 C154.214801,29.4353778 154.031597,29.3652364 153.826332,29.2527515 C153.620747,29.1409131 153.407169,28.9696 153.185278,28.7394586 C152.963386,28.5096404 152.760679,28.1899636 152.577795,27.7804283 C152.39459,27.3708929 152.244638,26.8572768 152.127937,26.2402263 C152.011556,25.623499 151.953366,24.8716606 151.953366,23.9850343 C151.953366,23.0987313 152.011556,22.349802 152.127937,21.7379232 C152.244638,21.1266909 152.39459,20.6163071 152.577795,20.2064485 C152.760679,19.7969131 152.963386,19.4772364 153.185278,19.2470949 C153.407169,19.0172768 153.618189,18.8462869 153.818339,18.733802 C154.017849,18.6219636 154.198176,18.551499 154.358999,18.5233778 C154.519822,18.4955798 154.633645,18.4813576 154.700148,18.4813576 L154.800223,18.4813576 C154.866727,18.4813576 154.98023,18.4955798 155.141373,18.5233778 C155.302196,18.551499 155.482842,18.6219636 155.682672,18.733802 C155.882502,18.8462869 156.090645,19.0172768 156.307101,19.2470949 C156.523237,19.4772364 156.722747,19.7969131 156.906271,20.2064485 C157.089155,20.6163071 157.239427,21.1292768 157.355488,21.7466505 C157.472189,22.363701 157.530699,23.109398 157.530699,23.9850343 C157.530699,24.8716606 157.472189,25.623499 157.355488,26.2402263 M158.362951,19.8780444 C158.029795,19.4407111 157.666584,19.1042263 157.272359,18.8685899 C156.878454,18.6329535 156.506611,18.4561455 156.156829,18.3381657 C155.807366,18.2201859 155.504903,18.1506909 155.249441,18.1277414 C154.993978,18.1054384 154.844346,18.0941253 154.800223,18.0941253 L154.766652,18.0941253 C154.722529,18.0941253 154.569699,18.1054384 154.309121,18.1277414 C154.048223,18.1506909 153.740005,18.2201859 153.385107,18.3381657 C153.02989,18.4561455 152.652611,18.6329535 152.252951,18.8685899 C151.853291,19.1042263 151.481448,19.4407111 151.13774,19.8780444 C150.793713,20.315701 150.510434,20.8687515 150.288543,21.535903 C150.066332,22.203701 149.955386,23.0201859 149.955386,23.9850343 C149.999829,25.1182869 150.199339,26.1335596 150.554876,27.0311758 C150.710264,27.4129131 150.901461,27.7859232 151.129107,28.1505293 C151.356434,28.5151354 151.639713,28.8406303 151.978624,29.1266909 C152.316577,29.4127515 152.713359,29.6428929 153.168652,29.8164687 C153.623624,29.9906909 154.151176,30.0776404 154.750346,30.0776404 C155.349835,30.0776404 155.876747,29.9906909 156.332039,29.8164687 C156.787012,29.6428929 157.180917,29.4127515 157.513754,29.1266909 C157.84659,28.8406303 158.129869,28.5151354 158.362951,28.1505293 C158.596033,27.7859232 158.784672,27.4129131 158.928869,27.0311758 C159.284087,26.1335596 159.483597,25.1182869 159.528359,23.9850343 C159.528359,23.0201859 159.417094,22.203701 159.195203,21.535903 C158.973312,20.8687515 158.695788,20.315701 158.362951,19.8780444" id="Fill-51" fill="#C21B17"></path>
                    <path d="M177.438684,18.7152808 C177.544195,18.7042909 177.624446,18.6984727 177.680399,18.6984727 L177.746902,18.6984727 L177.746902,18.1431596 L174.60046,18.1431596 L174.60046,18.6984727 L174.683589,18.6984727 C174.750412,18.6984727 174.84729,18.7042909 174.974861,18.7152808 C175.102113,18.7265939 175.235439,18.7547152 175.374521,18.7996444 C175.513283,18.8445737 175.640854,18.9118061 175.757555,19.0016646 C175.873936,19.0915232 175.949072,19.214998 175.982004,19.3717657 L175.982004,26.492897 L170.38261,18.1444525 L167.574759,18.1431596 L167.574759,18.1444525 L165.150582,18.1444525 L165.150582,18.6496646 L166.615256,18.6496646 L164.251507,26.9641697 L161.621106,18.6496646 L163.169229,18.6496646 L163.169229,18.1444525 L158.374589,18.1444525 L158.374589,18.6496646 L159.839902,18.6496646 L163.335807,29.9262707 L163.752093,29.9262707 L167.015235,18.6496646 L167.574759,18.6496646 C167.574759,18.6496646 169.339337,18.6603313 169.339337,19.8110384 L169.339337,28.6976646 C169.228392,28.9892202 169.058936,29.1744323 168.83161,29.2529778 C168.603963,29.3318465 168.412766,29.3706343 168.257378,29.3706343 C168.234997,29.3706343 168.210059,29.3683717 168.182562,29.3622303 C168.154426,29.3567354 168.129487,29.3538263 168.107426,29.3538263 L168.057548,29.3538263 L168.057548,29.9262707 L171.137487,29.9262707 L171.137487,29.3538263 L171.070984,29.3538263 C171.048603,29.3538263 171.023664,29.3567354 170.996167,29.3622303 C170.968351,29.3683717 170.937657,29.3706343 170.904405,29.3706343 C170.826712,29.3706343 170.732072,29.3622303 170.621446,29.3454222 C170.510181,29.3289374 170.402113,29.2979071 170.296603,29.2529778 C170.191093,29.2080485 170.097093,29.1408162 170.013644,29.0512808 C169.930834,28.961099 169.872324,28.8434424 169.838752,28.6976646 L169.838752,20.618796 L175.899195,29.9262707 L176.448167,29.9262707 L176.448167,19.3717657 C176.514671,19.214998 176.606433,19.0915232 176.723133,19.0016646 C176.839514,18.9118061 176.96165,18.8445737 177.089222,18.7996444 C177.216793,18.7547152 177.333494,18.7265939 177.438684,18.7152808" id="Fill-53" fill="#C21B17"></path>
                    <path d="M179.963416,25.8365091 L181.578361,20.9217616 L183.376511,25.8365091 L179.963416,25.8365091 Z M186.689212,29.3539232 L182.560565,18.1445495 L181.894572,18.1445495 L178.34847,28.6977616 C178.281967,28.8435394 178.19596,28.961196 178.090769,29.0510545 C177.984939,29.1409131 177.876871,29.2081455 177.765926,29.2527515 C177.654661,29.298004 177.54947,29.3261253 177.449715,29.3371152 C177.34964,29.3484283 177.271946,29.3539232 177.216633,29.3539232 L177.133184,29.3539232 L177.133184,29.9260444 L180.363076,29.9260444 L180.363076,29.3539232 L180.213123,29.3539232 C180.135429,29.3539232 180.035674,29.345196 179.913538,29.3290343 C179.791082,29.311903 179.674701,29.2779636 179.563756,29.2275394 C179.45281,29.1771152 179.358171,29.0959838 179.280797,28.983499 C179.203103,28.8716606 179.164416,28.7255596 179.164416,28.5461657 C179.164416,28.4007111 179.186477,28.2597818 179.230919,28.1253172 L179.879967,26.4086303 L183.609273,26.4086303 L184.741429,29.3539232 L183.45964,29.3539232 L183.45964,29.9260444 L187.821368,29.9260444 L187.821368,29.3539232 L186.689212,29.3539232 Z" id="Fill-55" fill="#C21B17"></path>
                    <polygon id="Fill-57" fill="#C21B17" points="81.6677116 18.7001535 83.1160789 18.7001535 83.1160789 18.1445172 78.338385 18.1445172 78.338385 18.7001535 79.8698816 18.7001535 79.8698816 29.3538909 78.338385 29.3538909 78.338385 29.9260121 83.1160789 29.9260121 83.1160789 29.3538909 81.6677116 29.3538909"></polygon>
                    <path d="M92.6920571,17.3336566 C93.3334313,17.0417778 93.9834381,16.7686465 94.628649,16.4848485 C95.2565946,16.2091313 95.8851796,15.9337374 96.5070503,15.6441212 C96.5943361,15.6033939 96.6445333,15.4825051 96.7119959,15.3987879 C96.6144789,15.3551515 96.5185605,15.2798384 96.4184857,15.2743434 C96.1198599,15.2578586 95.8173973,15.2898586 95.5197306,15.2643232 C94.9771524,15.218101 94.5170639,15.3315556 94.0979007,15.7242828 C93.5550027,16.2333737 92.9583905,16.6833131 92.3688122,17.1723636 C92.4241252,17.3763232 92.510132,17.416404 92.6920571,17.3336566" id="Fill-59" fill="#C21B17"></path>
                    <path d="M90.1792197,25.8365091 L91.7941653,20.9217616 L93.592315,25.8365091 L90.1792197,25.8365091 Z M92.7763694,18.1445495 L92.1103762,18.1445495 L88.5642741,28.6977616 C88.5642741,28.6977616 88.4277503,29.1593374 87.7767844,29.3073778 L83.1973218,23.1349333 L87.5558524,18.7169939 L88.8171789,18.7169939 L88.8171789,18.1445495 L85.5706619,18.1445495 L85.5706619,18.7169939 L86.9838592,18.7169939 L81.9008252,23.8670545 L86.0294714,29.3539232 L84.4979748,29.3539232 L84.4979748,29.9260444 L87.3489884,29.9260444 L89.2759884,29.9260444 L90.5788796,29.9260444 L90.5788796,29.3539232 L90.4289272,29.3539232 C90.3512333,29.3539232 90.2514782,29.345196 90.1293422,29.3290343 C90.0072061,29.311903 89.8905054,29.2779636 89.7795599,29.2275394 C89.6686143,29.1771152 89.5739748,29.0959838 89.4966007,28.983499 C89.4189068,28.8716606 89.3802197,28.7255596 89.3802197,28.5461657 C89.3802197,28.4007111 89.402281,28.2597818 89.4467231,28.1253172 L90.0957707,26.4086303 L93.8250769,26.4086303 L94.9572333,29.3539232 L93.6754442,29.3539232 L93.6754442,29.9260444 L98.0371721,29.9260444 L98.0371721,29.3539232 L96.9050156,29.3539232 L92.7763694,18.1445495 Z" id="Fill-61" fill="#C21B17"></path>
                </g>
            </g>
        </g>
    </g>
</svg>