<svg version="1.1" id="Layer_1" xmlns="http://www.w3.org/2000/svg" xmlns:xlink="http://www.w3.org/1999/xlink" x="0px" y="0px" viewBox="0 0 272 46" style="enable-background:new 0 0 272 46;" xml:space="preserve">
 <style type="text/css">
  .st0{fill:#FFFFFF;}
	.st1{fill:#E95F26;}
 </style>
 <desc>
  Created with Sketch.
 </desc>
 <g>
  <g>
   <g>
    <path id="Shape" class="st0" d="M28.2,20.6H17.1l2.4-10.9h10.3c3.4,0,5.4,1.8,5.4,4.5C35.2,17.6,32.7,20.6,28.2,20.6 M46.7,13
				c0-7.5-5.8-13-15.9-13H10.1L0,46h11.5L15,30.2h6.7L28.4,46h11.5l-7.1-16.6C41.3,28.1,46.7,21.2,46.7,13">
    </path>
    <path id="Shape_1_" class="st0" d="M66.5,28.8l9.9-17l3.7,17H66.5L66.5,28.8z M71.7,0L45,46h11.5l4.5-7.6h21.3l1.7,7.6h11.5
				L85.3,0H71.7z M128.3,20.6h-10.2l2.4-10.9h8.9c3.5,0,5.6,1.7,5.6,4.5C135,17.6,132.4,20.6,128.3,20.6 M130.6,0h-19.5L101,46h11.5
				l3.5-15.8h12.8c11,0,17.6-8.3,17.6-17C146.4,5.5,140.3,0,130.6,0">
    </path>
    <path id="Shape_2_" class="st0" d="M168.6,0h-11.5L147,46h11.5L168.6,0z">
    </path>
    <path id="Shape_3_" class="st1" d="M251,0h-36.3c0.6,0.6,1.1,1.1,1.6,1.8c4.1,4.9,6.2,11.1,6.2,17.9c0,10.5-4.4,20-11.5,26.4
				h22.2l10.6-26.2h-13.2l2.2-10.2H259L245.2,46h5.4c12.6,0.1,21.1-10.4,21.1-23S263.6,0,251,0">
    </path>
    <path class="st0" d="M187,36.4h-6.4l5.9-26.8h6c6.6,0,10.3,4.9,10.3,11.1C202.8,29,196.9,36.4,187,36.4 M210,7.5
				C206.1,2.7,199.6,0,191.9,0h-14.7L167,46h18.6c7.2,0,12.7-1.6,17-4.2c8.6-5.2,11.6-14.4,11.6-22.2C214.2,14.8,212.6,10.7,210,7.5
				">
    </path>
   </g>
  </g>
 </g>
</svg>