<svg clip-rule="evenodd" fill-rule="evenodd" stroke-linejoin="round" stroke-miterlimit="1.414" viewBox="0 0 92 63" xmlns="http://www.w3.org/2000/svg">
<path class="navbar-logo" d="M0 25.972h1.892v1.536h.045c.124-.266.293-.506.506-.728.213-.213.444-.4.702-.56a3.67 3.67 0 0 1 .852-.364c.311-.089.613-.133.924-.133.311 0 .586.044.844.124l-.08 2.043a4.272 4.272 0 0 0-.462-.106 2.678 2.678 0 0 0-.462-.045c-.924 0-1.634.258-2.123.782-.488.515-.737 1.324-.737 2.416v5.01H0v-9.975zm6.92 4.992c0-.728.133-1.412.409-2.043a5.295 5.295 0 0 1 2.807-2.789 5.245 5.245 0 0 1 2.078-.409 5.19 5.19 0 0 1 2.079.409 5.122 5.122 0 0 1 1.679 1.128c.479.479.852 1.03 1.128 1.661.275.631.408 1.315.408 2.043a5.16 5.16 0 0 1-1.536 3.713c-.48.471-1.04.844-1.679 1.11a5.253 5.253 0 0 1-2.079.409 5.183 5.183 0 0 1-2.078-.409 5.348 5.348 0 0 1-1.679-1.11 5.129 5.129 0 0 1-1.128-1.661 5.281 5.281 0 0 1-.409-2.052m2.025 0c0 .506.08.968.231 1.395.151.426.373.79.649 1.092a3.07 3.07 0 0 0 1.03.72 3.4 3.4 0 0 0 1.368.266 3.4 3.4 0 0 0 1.368-.266 3.07 3.07 0 0 0 1.03-.72c.285-.302.498-.666.649-1.092.151-.427.231-.898.231-1.395 0-.506-.08-.968-.231-1.395a3.18 3.18 0 0 0-.649-1.092 3.07 3.07 0 0 0-1.03-.72 3.4 3.4 0 0 0-1.368-.266 3.4 3.4 0 0 0-1.368.266 3.07 3.07 0 0 0-1.03.72 3.045 3.045 0 0 0-.649 1.092c-.16.418-.231.889-.231 1.395M19.898 20.047h1.892v7.47h.045c.239-.533.648-.968 1.243-1.297.586-.328 1.27-.497 2.043-.497.48 0 .933.071 1.377.222.444.151.826.373 1.155.684.329.311.595.702.791 1.19.195.48.293 1.057.293 1.715v6.413h-1.892v-5.889c0-.462-.063-.862-.187-1.19a2.125 2.125 0 0 0-.506-.8 1.993 1.993 0 0 0-.729-.444 2.75 2.75 0 0 0-.852-.133c-.391 0-.756.062-1.093.186a2.288 2.288 0 0 0-.88.595 2.823 2.823 0 0 0-.586 1.04c-.142.417-.213.915-.213 1.492v5.134h-1.892V20.047h-.009zm11.841 0h1.892v15.9h-1.892v-15.9zm4.61 2.354c0-.382.134-.702.409-.977a1.32 1.32 0 0 1 .977-.409c.382 0 .702.133.977.409.276.275.409.595.409.977s-.133.701-.409.977a1.322 1.322 0 0 1-.977.408c-.382 0-.702-.133-.977-.408a1.324 1.324 0 0 1-.409-.977m.436 3.571h1.892v9.966h-1.892v-9.966zm4.903-5.925h1.892v10.26l4.291-4.309H50.5l-4.646 4.522 5.046 5.427h-2.692l-4.628-5.178v5.178h-1.892v-15.9zM34.937 47.469c0-.205.071-.373.213-.507a.692.692 0 0 1 .507-.213c.204 0 .373.071.506.213a.692.692 0 0 1 .213.507.678.678 0 0 1-.213.506.692.692 0 0 1-.506.213.692.692 0 0 1-.507-.213.692.692 0 0 1-.213-.506M44.593 47.078c-.338.408-.72.71-1.155.906a3.302 3.302 0 0 1-1.395.293 3.955 3.955 0 0 1-1.465-.266 3.35 3.35 0 0 1-1.155-.756 3.383 3.383 0 0 1-.746-1.154 3.893 3.893 0 0 1-.267-1.457c0-.524.089-1.013.267-1.457.177-.444.426-.826.746-1.155.32-.32.702-.577 1.155-.755a3.989 3.989 0 0 1 1.465-.266c.507 0 .978.106 1.413.311.435.213.817.506 1.164.879l-.72.542a3.265 3.265 0 0 0-.853-.684 2.048 2.048 0 0 0-1.004-.249c-.417 0-.799.071-1.137.222-.337.151-.63.356-.87.604-.24.258-.418.551-.542.897a3.237 3.237 0 0 0-.187 1.102c0 .391.063.755.187 1.101.124.347.311.64.542.898.24.257.533.453.87.604.338.151.72.222 1.137.222.382 0 .729-.089 1.04-.258.311-.177.586-.408.817-.693l.693.569zm.613.48l4.139-5.561H45.41v-.809h5.179v.533l-4.131 5.57h4.309v.808h-5.561v-.541z"></path>
<clipPath id="a">
<path d="M80.909 51.215c-5.31 1.004-8.628 5.632-8.066 6.194.562.548 3.598 2.354 3.853 2.153 3.304-2.769 9.417-2.969 9.938-2.341.522.629-.535-5.497-.535-5.497s-.588-.749-2.742-.749c-.655-.014-1.458.053-2.448.24m-7.183-9.096c-5.31 1.004-8.628 5.632-8.066 6.194.562.548 2.261 6.701 2.461 6.434 2.676-3.545 7.919-7.117 11.33-6.635.482.067.629-1.792.375-3.331-.174-1.043-.736-1.966-.736-1.966s-.12-.99-2.555-.99c-.722-.013-1.645.067-2.809.294m-2.836-25.95c-2.715 2.127-8.668 1.86-12.747.134-.308-.134.909 5.832.708 6.595-.2.749 4.977 3.116 10.086 1.324 4.95-1.739 4.307-3.277 4.307-3.277s.148-.696-.133-1.485c-.509-1.418-1.605-3.331-2.1-3.331a.626.626 0 0 0-.121.04m1.565-11.116c-.147.803-5.538 3.679-9.778 2.943-.334-.053-2.06 3.037-2.26 3.786-.201.749 4.976 3.116 10.085 1.324 4.013-1.405 4.361-3.13 4.361-3.13s.12-1.364-.067-2.02c-.415-1.445-1.846-2.983-2.234-2.983-.067-.013-.093.014-.107.08"></path>
</clipPath>
<g clip-path="url(#a)">
<path d="M108.01 50.145L62.985 70.932 36.981 14.591 82.019-6.196l25.991 56.341z" fill="url(#_Linear2)"></path>
</g>
<clipPath id="b">
<path d="M84.895 57.435c-1.043 1.993-3.17 3.451-4.294 3.879 1.82.482 3.692.816 5.592.977v-.027a4.4 4.4 0 0 0 4.762-5.511c-.335-1.23-1.258-2.287-2.288-2.836-.976-.749-1.792-1.511-2.715-2.381.094.562.401 3.117-1.057 5.899m-13.777-.267a34.653 34.653 0 0 0 5.136 2.675c.709-.294 2.675-1.485 4.923-5.257 2.086-3.491 1.444-6.661 1.444-6.661a41.368 41.368 0 0 1-3.638-5.351c.468 3.505-3.625 11.276-7.865 14.594M56.591 37.371a33.601 33.601 0 0 0 11.423 17.563c6.274-4.2 9.257-13.363 6.769-22.646-2.461-9.176-9.484-15.584-16.935-16.212-2.608 6.554-3.223 13.965-1.257 21.295m5.885-29.388a35.411 35.411 0 0 0-3.009 4.641c5.23.816 12.333 5.271 13.818 8.668a39.68 39.68 0 0 1 .468-6.367c-.535-1.311-2.301-3.531-4.174-4.762-2.876-1.899-5.23-2.22-6.474-2.22-.254.013-.468.026-.629.04M71.452.131a4.586 4.586 0 0 0-.95.388V.505a32.803 32.803 0 0 0-5.043 4.12c1.057-.267 3.625-.133 5.605 1.137 2.595 1.659 3.572 3.799 3.799 4.348a34.579 34.579 0 0 1 1.525-4.147h-.027a4.197 4.197 0 0 0 .241-2.836 4.204 4.204 0 0 0-4.04-3.116 3.788 3.788 0 0 0-1.11.12"></path>
</clipPath>
<g clip-path="url(#b)">
<path d="M35.309 55.63l23.302-67.083 52.288 18.152-23.288 67.096L35.309 55.63z" fill="url(#_Linear4)"></path>
</g>
<path d="M73.285 21.292a39.68 39.68 0 0 1 .468-6.367c-.535-1.311-2.301-3.531-4.174-4.762-3.504-2.314-6.22-2.274-7.116-2.18a35.315 35.315 0 0 0-3.01 4.641c5.244.816 12.347 5.271 13.832 8.668m9.336 26.633a41.368 41.368 0 0 1-3.638-5.351c.455 3.505-3.625 11.29-7.865 14.594a34.653 34.653 0 0 0 5.136 2.675c.709-.294 2.675-1.485 4.923-5.257 2.086-3.491 1.444-6.661 1.444-6.661M71.051 5.749c2.595 1.659 3.571 3.799 3.799 4.347a34.627 34.627 0 0 1 1.525-4.146h-.027c.388-.856.508-1.86.241-2.836-.602-2.234-2.89-3.572-5.124-2.97a4.61 4.61 0 0 0-.949.388V.519a33.49 33.49 0 0 0-5.057 4.12c1.044-.281 3.599-.147 5.592 1.11m19.904 51.018c-.335-1.231-1.258-2.288-2.288-2.836-.976-.749-1.792-1.512-2.715-2.381.094.548.401 3.09-1.057 5.885-1.043 1.993-3.17 3.451-4.294 3.879 1.82.482 3.692.816 5.592.977v-.027a4.399 4.399 0 0 0 1.659-.12c2.34-.615 3.732-3.023 3.103-5.377M74.783 32.288c-2.461-9.176-9.484-15.584-16.921-16.212a33.643 33.643 0 0 0-1.258 21.295 33.597 33.597 0 0 0 11.424 17.563c6.26-4.187 9.243-13.363 6.755-22.646" fill="#fff" fill-opacity=".098"></path>
<defs>
<linearGradient gradientTransform="rotate(155.225 166.344 571.778) scale(39.1768)" gradientUnits="userSpaceOnUse" id="_Linear2" x2="1">
<stop offset="0" stop-color="#9d5d00"></stop>
<stop offset="1" stop-color="#e58035"></stop>
</linearGradient>
<linearGradient gradientTransform="scale(111.109) rotate(-70.855 -46.447 33.94)" gradientUnits="userSpaceOnUse" id="_Linear4" x2="1">
<stop offset="0" stop-color="#ce7014"></stop>
<stop offset="0" stop-color="#ce7014"></stop>
<stop offset="1" stop-color="#fbbd47"></stop>
</linearGradient>
</defs>
</svg>