<svg version="1.1" id="svg2" xmlns:svg="http://www.w3.org/2000/svg" xmlns="http://www.w3.org/2000/svg" xmlns:xlink="http://www.w3.org/1999/xlink" x="0px" y="0px" viewBox="306 -86 722 283" style="enable-background:new 306 -86 722 283;" xml:space="preserve">
 <style type="text/css">
  .st0{fill:#FF2A0C;}
 </style>
 <g id="g10">
  <g>
   <rect id="rect18" x="327.3" y="133.9" width="680.3" height="36.1">
   </rect>
  </g>
  <g>
   <rect id="rect20" x="327.3" y="-68.9" width="680.3" height="36.1">
   </rect>
  </g>
  <g>
   <path id="path22" class="st0" d="M517.7,17.5h2.8c9.5,0,20.2,1.8,20.2,13.8s-10.7,13.8-20.2,13.8h-2.8 M546.6,60.9
			c15.9-2.8,24.6-16,24.6-31.3c0-23.7-16.8-34.1-39-34.1h-43.6v111h29.2V63.7h0.3l27.5,42.7h36.3L546.6,60.9z">
   </path>
  </g>
  <g>
   <path id="path24" class="st0" d="M647.6,65h-24.3l12.1-35.3h0.3 M655.5,87.1l7.3,19.3h31.1l-42.3-111h-31.8l-43.2,111h30.9
			l7.7-19.3H655.5L655.5,87.1z">
   </path>
  </g>
  <g>
   <path id="path26" class="st0" d="M727.7,17.5h2.1c7.9,0,17,0.6,17,10.7c0,9.4-8,10.7-15.8,10.7h-3.3 M743.5,106.4
			c20.5,0,40.6-7.7,40.6-30.9c0-15.5-6.8-26.2-22.9-28.3v-0.3c9.1-4.6,12.4-12.7,12.4-22.7c0-21.2-13.4-28.8-33.3-28.8h-41.7v111
			L743.5,106.4L743.5,106.4z M727.7,60.5h3c9.5,0,24-1.3,24,12.1c0,12.2-14.6,11.8-23.2,11.8h-3.7V60.5z">
   </path>
  </g>
  <g>
   <path id="path28" class="st0" d="M854,65h-24.3l12-35.3h0.3 M861.9,87.1l7.3,19.3h31.1l-42.3-111h-31.8l-43.2,111H814l7.7-19.3
			H861.9L861.9,87.1z">
   </path>
  </g>
  <g>
   <polyline id="polyline30" class="st0" points="458.8,19.8 482.9,19.8 482.9,-4.6 405.6,-4.6 405.6,19.8 429.7,19.8 429.7,106.4 
			458.8,106.4 		">
   </polyline>
  </g>
  <g>
   <path id="path32" class="st0" d="M400.2,1.6c-10-5.6-23.8-9.1-35.1-9.1c-22.5,0-38.7,14.7-38.7,37.2c0,21.5,12.1,26.2,30.4,31.3
			c6.3,1.8,17.7,4.6,17.7,12.7c0,7.8-7.3,11.2-14.1,11.2c-10,0-18.6-5.1-25.9-11.5L322,96.7c11.5,7.9,25.3,12.7,39.4,12.7
			c11.3,0,23.1-3.1,31.8-10.5c8.9-7.5,11.6-18.8,11.6-29.9c0-18-12.1-25.8-27.7-30.3l-7.4-2.2c-5.1-1.6-12.9-4.1-12.9-10.6
			c0-6.2,7.1-9.3,12.5-9.3c7.1,0,14,2.9,19.3,7.4">
   </path>
  </g>
  <g>
   <path id="path34" class="st0" d="M952.8,44.4V67h23.8c-1.2,12.8-10.9,19.3-23.5,19.3c-19.2,0-29.6-17.5-29.6-34.7
			c0-16.9,10-35,29.2-35c11.8,0,20.2,7.1,24.3,17.7l27.7-11.5c-9.7-20.7-27.5-31-50.6-31c-36.2,0-60.9,23.7-60.9,59.7
			c0,34.9,24.6,58.6,59.8,58.6c18.8,0,35.3-6.6,46.3-21.8c10-13.8,11.2-27.7,11.5-43.9">
   </path>
  </g>
 </g>
</svg>